<svg width="743" height="727" xmlns="http://www.w3.org/2000/svg">
 <!-- Created with SVG Editor - http://github.com/mzalive/SVG Editor/ -->

 <g>
  <title>background</title>
  <rect fill="none" id="canvas_background" height="729" width="745" y="-1" x="-1"/>
 </g>
 <g>
  <title>Layer 1</title>
  <g stroke="null" id="svg_6">
   <rect stroke="null" x="0.000018" y="-0.000018" id="svg_4" fill="#c283f3" transform="matrix(-24.122849370698887,23.35916791579403,24.122849370698887,23.35916791579403,166.83453352946026,526.0543721567562) " height="1.71695" width="6.8678"/>
   <path stroke="null" id="svg_5" fill="#c283f3" d="m407.058588,604.915143c-153.22298,0 -271.78491,-123.574082 -271.78491,-268.851175c0,-145.275413 118.56193,-268.851175 271.78491,-268.851175c153.223316,0 271.785582,123.575762 271.785582,268.851175c0,145.277093 -118.562266,268.851175 -271.785582,268.851175zm0,67.212794c-185.311462,0 -335.537084,-150.46256 -335.537084,-336.063968c0,-185.603089 150.225621,-336.063968 335.537084,-336.063968c185.314147,0 335.537755,150.46088 335.537755,336.063968c0,185.601408 -150.223608,336.063968 -335.537755,336.063968z" clip-rule="evenodd" fill-rule="evenodd"/>
  </g>
 </g>
</svg>